<svg viewBox="0 0 70 70" fill="none" xmlns="http://www.w3.org/2000/svg">
<g clip-path="url(#clip0)">
<path d="M34.9993 13.938C35.7543 13.938 36.3665 13.3257 36.3665 12.5708V5.60632C36.3665 4.85136 35.7544 4.23914 34.9993 4.23914C34.2442 4.23914 33.6321 4.85123 33.6321 5.60632V12.5708C33.6323 13.3257 34.2444 13.938 34.9993 13.938Z" fill="#3C579B"/>
<path d="M24.7204 16.1838C24.9803 16.5963 25.4243 16.8222 25.8783 16.8222C26.1274 16.8222 26.3796 16.7541 26.6059 16.6115C27.2447 16.209 27.4361 15.3647 27.0336 14.7259L23.3908 8.94607C22.9882 8.30732 22.144 8.11578 21.5053 8.51842C20.8666 8.92092 20.6752 9.76516 21.0777 10.404L24.7204 16.1838Z" fill="#3C579B"/>
<path d="M43.3973 16.6119C43.6236 16.7542 43.8755 16.8222 44.1244 16.8222C44.5785 16.8222 45.0227 16.596 45.2826 16.1833L48.9215 10.4035C49.3238 9.76449 49.132 8.92052 48.4929 8.51802C47.8536 8.11593 47.0099 8.30789 46.6076 8.94664L42.9687 14.7264C42.5665 15.3656 42.7584 16.2095 43.3973 16.6119Z" fill="#3C579B"/>
<path d="M69.5592 36.4263L67.1838 32.2297C66.8116 31.5723 65.9773 31.3413 65.3207 31.7134C64.6635 32.0854 64.4324 32.9196 64.8044 33.5765L67.1788 37.7713C67.2978 37.9821 67.2669 38.1854 67.2379 38.2878C67.21 38.3864 67.1332 38.5684 66.9322 38.6794L63.2711 40.7073C62.9459 40.887 62.5214 40.7735 62.344 40.4607L61.4139 38.8154C61.4101 38.808 61.4057 38.8012 61.4018 38.794L51.7863 21.787C51.6675 21.5777 51.6976 21.377 51.7261 21.2759C51.7535 21.1782 51.8298 20.9976 52.0308 20.8864L55.6962 18.858C56.0256 18.6757 56.4397 18.7864 56.6198 19.1055L58.7627 22.8917C59.1347 23.5489 59.9691 23.7798 60.6259 23.408C61.2831 23.0362 61.5142 22.2019 61.1423 21.5448L59.0003 17.7603C58.0868 16.1408 56.0111 15.5598 54.3729 16.4653L50.7076 18.4937C49.9145 18.932 49.3415 19.6565 49.0944 20.5341C48.8611 21.3615 48.9445 22.2253 49.3264 22.9834L47.3073 23.5686C46.4472 23.8174 45.9252 23.9523 45.6355 23.9523C45.6343 23.9523 45.6332 23.9523 45.6321 23.9523C45.4326 23.9516 45.2151 23.8755 44.5943 23.6403C44.3126 23.5337 43.9619 23.4008 43.5309 23.2504L39.9536 21.9998C37.9752 21.3089 37.0828 21.3461 35.79 21.464L29.6901 22.01C26.9094 22.2563 25.1366 22.8836 24.1579 23.9715L20.6817 22.9643C21.0558 22.2094 21.136 21.354 20.905 20.5341C20.6578 19.657 20.0852 18.9327 19.2929 18.4944L15.6297 16.4651C13.9902 15.5587 11.9133 16.1399 10.9996 17.7591L0.44434 36.4244C-0.00751561 37.2199 -0.119352 38.1452 0.12975 39.0299C0.377211 39.9085 0.950063 40.6336 1.74166 41.0714L5.40491 43.1005C5.92868 43.39 6.4977 43.5276 7.05921 43.5276C8.25208 43.5276 9.41173 42.907 10.035 41.8066L10.4221 41.1219C11.4784 41.5869 12.3653 42.2624 12.9697 43.0622C12.3793 43.7521 12.0075 44.6034 11.9032 45.5294C11.7653 46.754 12.1112 47.9555 12.8771 48.9132C13.6365 49.8627 14.7223 50.4618 15.9365 50.6029C15.808 51.8171 16.1552 53.0068 16.9153 53.9539C17.7008 54.9361 18.8111 55.5091 19.9726 55.6443C19.8446 56.8567 20.1906 58.0453 20.9483 58.9929C21.7073 59.9445 22.7933 60.5448 24.0088 60.6859C23.8801 61.9011 24.2274 63.0915 24.9874 64.0387C25.8933 65.1712 27.2307 65.7609 28.5808 65.7608C29.5887 65.7608 30.6037 65.4321 31.4511 64.7553L34.3137 62.4648C34.541 62.2833 34.7476 62.0828 34.9334 61.8668L36.5686 63.173C37.4142 63.8478 38.4269 64.1757 39.4334 64.1755C40.7842 64.1754 42.1237 63.585 43.0309 62.4514C43.509 61.8536 43.8117 61.1714 43.9484 60.4672C44.4265 60.6326 44.9313 60.718 45.4459 60.7179C45.6184 60.7179 45.792 60.7083 45.9662 60.6891C47.1912 60.553 48.2866 59.9506 49.0477 58.9961C49.8091 58.0475 50.1564 56.8579 50.028 55.6439C51.1886 55.5084 52.2994 54.9355 53.0874 53.9537C53.8721 52.9725 54.1871 51.7645 54.0638 50.6026C55.2773 50.4613 56.3626 49.8623 57.1202 48.915C57.8866 47.9599 58.234 46.7602 58.0982 45.5365C57.9952 44.6077 57.623 43.7534 57.0316 43.0616C57.6342 42.2621 58.5193 41.5858 59.5763 41.1211L59.9642 41.8071C60.5871 42.9071 61.7462 43.5274 62.9393 43.5274C63.5011 43.5273 64.0707 43.3898 64.595 43.0999L68.2562 41.0718C69.0475 40.6343 69.6201 39.9103 69.8685 39.0332C70.119 38.1493 70.0095 37.224 69.5592 36.4263ZM7.6553 40.46C7.47756 40.7739 7.05278 40.8871 6.72889 40.7079L3.06579 38.679C2.86577 38.5682 2.78948 38.3869 2.76159 38.2886C2.73301 38.1868 2.70252 37.9846 2.82311 37.7727L13.38 19.1037C13.5008 18.8895 13.7286 18.7695 13.9651 18.7695C14.0803 18.7695 14.1973 18.7978 14.3053 18.8575L17.9674 20.8861C17.9679 20.8864 17.9683 20.8867 17.9687 20.8868C18.1691 20.9977 18.2453 21.1783 18.2729 21.2761C18.3013 21.3771 18.3314 21.5778 18.2112 21.7894L7.6553 40.46ZM17.6322 47.4956C17.2467 47.8044 16.7598 47.944 16.2623 47.8886C15.7645 47.8334 15.3208 47.5909 15.0127 47.2056C14.7038 46.8194 14.5647 46.3326 14.6206 45.8353C14.6762 45.3399 14.9189 44.8985 15.3064 44.5902L20.4248 40.4987C21.2282 39.8574 22.4041 39.9893 23.0461 40.7911C23.3549 41.1771 23.4942 41.663 23.4384 42.1589C23.3829 42.6531 23.1401 43.0942 22.7548 43.4007C22.7463 43.4074 22.7391 43.4149 22.7309 43.4219L17.6334 47.4946C17.633 47.4949 17.6326 47.4953 17.6322 47.4956ZM19.0492 52.2444C18.7406 51.8598 18.6011 51.3751 18.6562 50.8796C18.7113 50.3837 18.9543 49.9402 19.3401 49.6308L19.3405 49.6306C19.3408 49.6304 19.3411 49.6302 19.3413 49.63C19.3415 49.63 19.3415 49.6299 19.3416 49.6297L26.7143 43.7394C27.5175 43.0979 28.6937 43.2288 29.3356 44.0318C29.6439 44.4172 29.7832 44.9026 29.7281 45.3983C29.6729 45.8946 29.4293 46.3381 29.0425 46.6471L21.6717 52.5353C20.8675 53.177 19.6917 53.0476 19.0492 52.2444ZM24.3344 57.9715C23.8368 57.9163 23.3935 57.6735 23.085 57.2865C22.7767 56.9011 22.6374 56.4158 22.6924 55.92C22.7477 55.4242 22.9909 54.981 23.3771 54.6721C23.3774 54.6718 23.3778 54.6715 23.3781 54.6712L28.4802 50.5954C28.4862 50.5907 28.4927 50.5868 28.4988 50.582C29.2999 49.9406 30.4757 50.0712 31.1183 50.8721C31.4271 51.2582 31.5665 51.7449 31.5105 52.2423C31.4548 52.7376 31.2121 53.1791 30.8248 53.4874L25.7064 57.5787C25.3196 57.8876 24.8322 58.0265 24.3344 57.9715ZM33.292 59.0814C33.2366 59.5773 32.9937 60.0198 32.6067 60.3288L29.744 62.6198C28.9397 63.2617 27.7639 63.1325 27.1216 62.3291C26.813 61.9448 26.6734 61.4597 26.7285 60.9633C26.7836 60.4669 27.0263 60.0241 27.4114 59.7164C27.4118 59.7162 27.4124 59.7158 27.4128 59.7155L30.2749 57.4276C30.2764 57.4264 30.278 57.4254 30.2795 57.4244C31.083 56.7831 32.2589 56.9145 32.901 57.7168C33.2085 58.1015 33.3475 58.5859 33.292 59.0814ZM54.9862 47.2054C54.6781 47.5907 54.2343 47.8334 53.7366 47.8886C53.2394 47.9445 52.7523 47.8045 52.3667 47.4956C52.3666 47.4954 52.3663 47.4953 52.366 47.4952C52.3659 47.495 52.3656 47.4949 52.3655 47.4947L48.7072 44.5718C48.1171 44.1004 47.2569 44.1967 46.7857 44.7865C46.3144 45.3763 46.4106 46.2367 47.0004 46.7079L50.6575 49.6299C51.4597 50.2723 51.5919 51.4459 50.9535 52.2442C50.3092 53.047 49.1333 53.1776 48.3305 52.5346L44.3622 49.3679C43.7722 48.8971 42.9119 48.9937 42.4409 49.5838C41.9701 50.1739 42.0666 51.0341 42.6568 51.5051L46.6232 54.6703C47.0097 54.9798 47.2529 55.4236 47.3081 55.92C47.3632 56.4155 47.2238 56.9003 46.9126 57.2879C46.6051 57.6735 46.1619 57.9161 45.6644 57.9715C45.1663 58.0263 44.6789 57.8873 44.2936 57.5798L42.3191 56.0007C42.3157 55.998 42.3127 55.9951 42.3093 55.9924L40.641 54.6587L40.3292 54.4093C39.7392 53.9376 38.879 54.0335 38.4076 54.623C38.3487 54.6968 38.2985 54.7747 38.2572 54.8557C38.0592 55.2426 38.0625 55.6964 38.2483 56.0769C38.3343 56.2531 38.4582 56.414 38.6214 56.5446L40.6067 58.1323C41.4036 58.7758 41.5339 59.9454 40.8959 60.7432C40.2537 61.5459 39.0777 61.677 38.2747 61.0365L36.0223 59.237C36.116 58.0668 35.7693 56.9256 35.036 56.0086C34.5802 55.4389 34.0148 55.0074 33.394 54.718C33.849 54.0868 34.1379 53.3452 34.2276 52.5479C34.3654 51.3234 34.0195 50.1219 33.2522 49.1626C32.7962 48.5944 32.2316 48.1638 31.612 47.8751C32.0678 47.2419 32.3567 46.4989 32.4456 45.7004C32.5816 44.4787 32.2354 43.2796 31.4709 42.3235C30.1554 40.6788 27.9307 40.1788 26.0791 40.9646C25.9309 40.2841 25.6281 39.642 25.181 39.083C23.5981 37.1049 20.6994 36.7813 18.7182 38.3621L15.0574 41.2883C14.2296 40.2318 13.1042 39.3557 11.7737 38.7309L19.304 25.4117L23.3134 26.5734C23.3317 26.7879 23.3665 27.0135 23.4246 27.2524C24.3951 31.243 28.0693 33.1024 33.0135 32.1061C37.1793 31.2679 38.8943 32.5165 42.31 35.0038C42.6643 35.2618 43.0325 35.5299 43.4179 35.806C45.8744 37.5683 48.4994 39.6397 50.2593 41.0437L54.6972 44.5904C55.0828 44.898 55.3254 45.341 55.3805 45.8378C55.4356 46.3343 55.2962 46.8193 54.9862 47.2054ZM54.9437 41.2874L51.9656 38.9073C50.1813 37.4839 47.5192 35.3835 45.0111 33.584C44.631 33.3118 44.2686 33.0478 43.9197 32.7938C40.3778 30.2146 37.8181 28.3511 32.474 29.4259C30.8383 29.7555 26.9413 30.1409 26.0817 26.607C25.9606 26.1081 26.0836 25.9367 26.136 25.8635C26.3188 25.6087 27.0543 24.9884 29.9321 24.7335L36.0384 24.1871C37.0334 24.0963 37.5326 24.0506 39.0513 24.5811L42.6289 25.8318C43.0266 25.9707 43.3446 26.091 43.6253 26.1974C45.348 26.8499 45.8045 26.8498 48.0676 26.1948L50.7052 25.4305L58.2254 38.7318C56.8944 39.3562 55.7702 40.2316 54.9437 41.2874Z" fill="#3C579B"/>
<path d="M62.9686 28.9296C63.7235 28.9296 64.3358 28.3155 64.3358 27.5604C64.3358 26.8053 63.7235 26.1932 62.9686 26.1932C62.2136 26.1932 61.6014 26.8054 61.6014 27.5604V27.5642C61.6014 28.3193 62.2136 28.9296 62.9686 28.9296Z" fill="#3C579B"/>
</g>
<defs>
<clipPath id="clip0">
<rect width="70" height="70" fill="white"/>
</clipPath>
</defs>
</svg>
