<svg width="70" height="70" viewBox="0 0 70 70" fill="none" xmlns="http://www.w3.org/2000/svg">
<g clip-path="url(#clip0)">
<path d="M52.5 0C47.9671 0.0365007 43.4677 0.779651 39.1638 2.20267C34.5187 3.70489 30.1073 5.85148 26.0587 8.57967C22.5856 10.8881 19.417 13.6244 16.6273 16.7242C16.5032 16.8654 16.4144 17.0342 16.3683 17.2165C15.4033 21.0838 14.6632 25.0038 14.1517 28.9567C13.3499 28.0424 12.8847 26.8816 12.8333 25.6667C12.8333 25.2426 12.6032 24.8518 12.2322 24.6462C11.8613 24.4406 11.408 24.4526 11.0483 24.6773C10.6423 24.9317 1.21567 31.0765 4.62233 50.001C1.8001 55.8928 0.226393 62.3044 1.18071e-08 68.8333C-0.000168362 69.282 0.256931 69.6909 0.661288 69.8853C1.06564 70.0796 1.54562 70.0249 1.89583 69.7445L7.72917 65.0778C7.92838 64.9183 8.06977 64.6978 8.13167 64.4502C8.95433 61.3973 10.0597 58.4278 11.4333 55.58C12.2135 55.7009 13.0017 55.7629 13.7912 55.7655C17.5734 55.6295 21.3109 54.9012 24.8675 53.6072C25.4107 53.4267 25.7427 52.8789 25.6514 52.3139C25.5601 51.7488 25.0724 51.3335 24.5 51.3333C22.9428 51.203 21.5481 50.3183 20.7667 48.965C24.3656 50.1035 28.2287 50.0998 31.8255 48.9545C31.9534 48.9181 32.0741 48.8601 32.1825 48.783C37.5874 44.8335 42.7035 40.5031 47.4915 35.8248C47.8251 35.4912 47.9248 34.9895 47.7443 34.5536C47.5638 34.1177 47.1385 33.8334 46.6667 33.8333C44.3762 33.7517 42.1307 33.1737 40.0855 32.1393C43.3837 32.4403 47.9022 32.326 50.8655 30.1C54.46 27.4038 58.856 22.6158 63.9322 15.8667C66.3337 12.5197 68.3415 8.90725 69.916 5.10067C70.1124 4.6108 69.9555 4.05009 69.5333 3.73333C69.3303 3.5805 64.4187 0 52.5 0V0ZM5.96983 63.497L2.49433 66.2783C3.01995 60.8622 4.50617 55.583 6.88333 50.6882C10.9317 42.5833 27.4493 23.4418 42.287 16.5025C34.2008 22.2717 19.187 34.8565 9.45583 54.3118C8.01066 57.2585 6.8436 60.3335 5.96983 63.497ZM62.0667 14.4667C60.368 16.7253 58.758 18.7367 57.2308 20.5333C53.8048 21.5765 50.2477 22.1264 46.6667 22.1667C46.0223 22.1667 45.5 22.689 45.5 23.3333C45.5 23.9777 46.0223 24.5 46.6667 24.5C49.2828 24.4827 51.8901 24.1954 54.4472 23.6425C52.9165 25.3076 51.2506 26.8431 49.4667 28.2333C45.3052 31.3565 36.5377 29.2227 36.449 29.2017C35.9701 29.0823 35.4678 29.2773 35.1949 29.6886C34.922 30.0998 34.9374 30.6383 35.2333 31.0333C37.4623 33.7061 40.6131 35.4452 44.0627 35.9065C39.9237 39.7834 35.5569 43.4097 30.9855 46.7658C23.6565 48.7865 19.5358 45.8558 19.3667 45.7333C18.979 45.4424 18.452 45.4215 18.0425 45.6806C17.6329 45.9398 17.4263 46.4252 17.5233 46.9C17.8648 49.0865 19.0455 51.0537 20.8145 52.3833C18.146 53.1681 15.3657 53.504 12.5872 53.3773C20.1722 39.528 30.7884 27.5714 43.6427 18.4007C44.6392 17.7148 44.9287 16.3712 44.303 15.3358C43.7027 14.2722 42.3779 13.8601 41.2802 14.3955C27.0468 21.0548 12.341 37.5165 6.49483 46.6947C5.2045 35.658 8.778 30.1093 10.885 27.8833C11.6237 29.7344 12.8868 31.3296 14.5192 32.473C14.8775 32.7121 15.3385 32.7342 15.7181 32.5306C16.0977 32.327 16.3343 31.9308 16.3333 31.5C16.3333 27.4715 18.1825 19.6338 18.564 18.06C19.5891 16.9273 20.6709 15.8472 21.805 14.8237C21.2853 16.8418 21.015 18.9161 21 21C21 21.6443 21.5223 22.1667 22.1667 22.1667C22.811 22.1667 23.3333 21.6443 23.3333 21C23.3836 17.9528 23.9843 14.9399 25.1067 12.1065C28.1329 9.82489 31.4066 7.89158 34.8658 6.34317C34.4428 7.21072 34.1082 8.1187 33.8672 9.05333C33.7125 9.67898 34.0944 10.3115 34.72 10.4662C35.3456 10.6208 35.9782 10.239 36.1328 9.61333C36.6091 7.93945 37.3627 6.35728 38.3623 4.93267C42.892 3.26562 47.6736 2.38647 52.5 2.33333C60.9898 2.33333 65.646 4.249 67.3598 5.14733C65.9295 8.43197 64.1552 11.5558 62.0667 14.4667Z" fill="#967F43"/>
</g>
<defs>
<clipPath id="clip0">
<rect width="70" height="70" fill="white"/>
</clipPath>
</defs>
</svg>
