<svg width="70" height="70" viewBox="0 0 70 70" fill="none" xmlns="http://www.w3.org/2000/svg">
<path d="M56.6025 20.3369C57.3575 20.3369 57.9697 19.7248 57.9697 18.9697V4.10156C57.9697 1.83996 56.1298 0 53.8682 0H4.10254C1.84094 0 0.000976562 1.83996 0.000976562 4.10156V65.8984C0.000976562 68.16 1.84094 70 4.10254 70H53.8682C56.1298 70 57.9697 68.16 57.9697 65.8984V55.8261C57.9697 55.071 57.3575 54.4589 56.6025 54.4589C55.8476 54.4589 55.2354 55.071 55.2354 55.8261V65.8984C55.2354 66.6523 54.622 67.2656 53.8682 67.2656H4.10254C3.34867 67.2656 2.73535 66.6523 2.73535 65.8984V4.10156C2.73535 3.3477 3.34867 2.73438 4.10254 2.73438H53.8682C54.622 2.73438 55.2354 3.3477 55.2354 4.10156V18.9697C55.2354 19.7248 55.8476 20.3369 56.6025 20.3369Z" fill="#347C40"/>
<path d="M28.9853 7.38281C22.0497 7.38281 16.4072 13.0253 16.4072 19.9609C16.4072 23.559 17.9261 26.8085 20.3559 29.1032C20.4014 29.1519 20.4498 29.1979 20.5027 29.2399C22.741 31.2878 25.7197 32.5389 28.9852 32.5389C32.2507 32.5389 35.2294 31.2877 37.4676 29.2399C37.5205 29.1979 37.5689 29.1517 37.6145 29.1032C40.0445 26.8085 41.5634 23.559 41.5634 19.9609C41.5634 13.0253 35.9209 7.38281 28.9853 7.38281ZM28.9853 29.8047C26.7528 29.8047 24.6925 29.0566 23.0393 27.7993C24.2409 25.6685 26.4832 24.3359 28.9853 24.3359C31.4874 24.3359 33.7297 25.6685 34.9313 27.7993C33.278 29.0566 31.2178 29.8047 28.9853 29.8047ZM26.7978 19.4141V18.5254C26.7978 17.3193 27.7792 16.3379 28.9853 16.3379C30.1914 16.3379 31.1728 17.3193 31.1728 18.5254V19.4141C31.1728 20.6202 30.1914 21.6016 28.9853 21.6016C27.7792 21.6016 26.7978 20.6202 26.7978 19.4141ZM36.9068 25.7965C35.8985 24.3011 34.5011 23.138 32.8787 22.42C33.5226 21.5878 33.9072 20.5453 33.9072 19.4141V18.5254C33.9072 15.8114 31.6993 13.6035 28.9853 13.6035C26.2713 13.6035 24.0634 15.8114 24.0634 18.5254V19.4141C24.0634 20.5453 24.448 21.5878 25.092 22.42C23.4695 23.138 22.0721 24.3011 21.0638 25.7965C19.8567 24.1623 19.1416 22.1439 19.1416 19.9609C19.1416 14.5331 23.5574 10.1172 28.9853 10.1172C34.4132 10.1172 38.8291 14.5331 38.8291 19.9609C38.8291 22.1439 38.1139 24.1623 36.9068 25.7965Z" fill="#347C40"/>
<path d="M36.3681 59.8828H28.9853C28.2304 59.8828 27.6181 60.4949 27.6181 61.25C27.6181 62.0051 28.2304 62.6172 28.9853 62.6172H36.3681C37.1231 62.6172 37.7353 62.0051 37.7353 61.25C37.7353 60.4949 37.1231 59.8828 36.3681 59.8828Z" fill="#347C40"/>
<path d="M36.3681 52.2266H16.9541C16.1991 52.2266 15.5869 52.8387 15.5869 53.5938C15.5869 54.3488 16.1991 54.9609 16.9541 54.9609H36.3681C37.1231 54.9609 37.7353 54.3488 37.7353 53.5938C37.7353 52.8387 37.1231 52.2266 36.3681 52.2266Z" fill="#347C40"/>
<path d="M36.3681 44.5703H16.9541C16.1991 44.5703 15.5869 45.1824 15.5869 45.9375C15.5869 46.6926 16.1991 47.3047 16.9541 47.3047H36.3681C37.1231 47.3047 37.7353 46.6926 37.7353 45.9375C37.7353 45.1824 37.1231 44.5703 36.3681 44.5703Z" fill="#347C40"/>
<path d="M12.0813 37.3146C11.8271 37.0604 11.4744 36.9141 11.1135 36.9141C10.7538 36.9141 10.401 37.0604 10.1469 37.3146C9.89257 37.5689 9.74628 37.9217 9.74628 38.2812C9.74628 38.6408 9.89243 38.9936 10.1469 39.2479C10.4025 39.5021 10.7538 39.6484 11.1135 39.6484C11.4744 39.6484 11.8258 39.5021 12.0813 39.2479C12.3356 38.9936 12.482 38.6408 12.482 38.2812C12.482 37.9217 12.3357 37.5689 12.0813 37.3146Z" fill="#347C40"/>
<path d="M12.0813 44.9709C11.8258 44.7166 11.4744 44.5703 11.1135 44.5703C10.7538 44.5703 10.4025 44.7166 10.1469 44.9709C9.89257 45.2252 9.74628 45.5779 9.74628 45.9375C9.74628 46.2971 9.89243 46.6498 10.1469 46.9041C10.4025 47.1584 10.7538 47.3047 11.1135 47.3047C11.4744 47.3047 11.8258 47.1584 12.0813 46.9041C12.3356 46.6498 12.482 46.2971 12.482 45.9375C12.482 45.5779 12.3357 45.2252 12.0813 44.9709Z" fill="#347C40"/>
<path d="M12.0813 52.6271C11.8258 52.3729 11.4744 52.2266 11.1135 52.2266C10.7538 52.2266 10.4025 52.3729 10.1469 52.6271C9.89257 52.8814 9.74628 53.2342 9.74628 53.5938C9.74628 53.9533 9.89243 54.3061 10.1469 54.5604C10.401 54.8146 10.7538 54.9609 11.1135 54.9609C11.4744 54.9609 11.8271 54.8146 12.0813 54.5604C12.3356 54.3061 12.482 53.9533 12.482 53.5938C12.482 53.2342 12.3357 52.8814 12.0813 52.6271Z" fill="#347C40"/>
<path d="M36.3681 36.9141H16.9541C16.1991 36.9141 15.5869 37.5262 15.5869 38.2812C15.5869 39.0363 16.1991 39.6484 16.9541 39.6484H36.3681C37.1231 39.6484 37.7353 39.0363 37.7353 38.2812C37.7353 37.5262 37.1231 36.9141 36.3681 36.9141Z" fill="#347C40"/>
<path d="M67.1292 17.8172C65.801 17.0503 64.2536 16.8466 62.7718 17.2435C61.2903 17.6405 60.0519 18.5907 59.2852 19.9189L42.0803 49.7186C41.9861 49.8819 41.9265 50.0631 41.9055 50.2505L40.6945 61.0984C40.6343 61.6381 40.8993 62.1624 41.3696 62.4341C41.5819 62.5566 41.8178 62.6173 42.0531 62.6173C42.3391 62.6173 42.624 62.5278 42.8639 62.351L51.6528 55.8782C51.8047 55.7663 51.9318 55.6243 52.026 55.4609L69.2308 25.6613C70.814 22.9192 69.8712 19.4004 67.1292 17.8172ZM43.7586 58.296L44.3911 52.6315L48.348 54.9161L43.7586 58.296ZM50.3416 52.9096L45.132 49.9018L58.9385 25.9883L64.1482 28.9961L50.3416 52.9096ZM66.8629 24.2939L65.5152 26.6281L60.3056 23.6203L61.6532 21.2861C62.0549 20.5904 62.7035 20.0927 63.4795 19.8848C64.2558 19.6767 65.0662 19.7836 65.7619 20.1853C66.4576 20.5869 66.9553 21.2355 67.1632 22.0116C67.3712 22.7876 67.2645 23.5982 66.8629 24.2939Z" fill="#347C40"/>
</svg>
