<svg width="70" height="70" viewBox="0 0 70 70" fill="none" xmlns="http://www.w3.org/2000/svg">
<path d="M58.7602 58.6201H61.0081V60.868H58.7602V58.6201Z" fill="#337E70"/>
<path d="M67.7518 39.5129V41.7608H65.5039V40.6368C65.5039 38.7775 63.9914 37.2649 62.1321 37.2649V35.017C62.1321 33.7773 61.1239 32.7691 59.8841 32.7691H53.1404C51.9007 32.7691 50.8925 33.7773 50.8925 35.017V37.2649H39.8071C40.7445 36.6003 41.4986 35.6756 41.9497 34.5516L43.561 30.5212H41.9008C39.4219 30.5212 37.405 28.5049 37.405 26.0254V14.7858C37.405 6.72933 30.8506 0.174377 22.7936 0.174377C14.7371 0.174377 8.18216 6.72933 8.18216 14.7858V26.0254C8.18216 28.5049 6.16584 30.5212 3.68633 30.5212H2.02674L3.63804 34.5505C4.11605 35.7431 4.93322 36.715 5.95126 37.384C4.39375 38.4553 3.23467 40.0578 2.76269 41.9463L0 53.0003H36.2811V56.3722H38.529V53.0003H40.7769V48.5045H43.0248V44.0087H54.2644V58.6201H35.1571C33.2983 58.6201 31.7852 60.1326 31.7852 61.992V69.8597H65.5039V48.5045H67.7518V50.7524H69.9997V39.5129H67.7518ZM53.1404 35.017H59.8841V37.2649H53.1404V35.017ZM5.27129 32.5814C8.22716 31.8663 10.4301 29.198 10.4301 26.0254V14.7858C10.4301 7.96908 15.9769 2.42229 22.7936 2.42229C29.6109 2.42229 35.1571 7.96908 35.1571 14.7858V26.0254C35.1571 29.198 37.3606 31.8663 40.3164 32.5814L39.862 33.7175C39.3258 35.0609 38.1064 35.961 36.6938 36.1102L29.5373 34.1581V31.2956C31.6014 29.4422 32.9092 26.7624 32.9092 23.7775V17.0337C32.9092 15.1744 31.3967 13.6619 29.5373 13.6619H16.0499C14.191 13.6619 12.678 15.1744 12.678 17.0337V23.7775C12.678 26.7624 13.9863 29.4422 16.0499 31.2956V34.1581L8.89506 36.1092C7.48243 35.9599 6.26243 35.0582 5.7268 33.7153L5.27129 32.5814ZM27.2894 34.7997C27.0457 35.337 25.9476 37.2649 22.7936 37.2649C19.6637 37.2649 18.5541 35.3507 18.2978 34.7964V32.8251C19.6544 33.5018 21.1774 33.8931 22.7936 33.8931C24.4098 33.8931 25.9333 33.5029 27.2894 32.8251V34.7997ZM22.7936 31.6452C18.4564 31.6452 14.9259 28.1158 14.9259 23.7775V17.0337C14.9259 16.4141 15.4297 15.9098 16.0499 15.9098H29.5373C30.158 15.9098 30.6613 16.4141 30.6613 17.0337V23.7775C30.6613 28.1158 27.1314 31.6452 22.7936 31.6452ZM2.87739 50.7524L4.942 42.4923C5.43428 40.5232 6.95722 38.9673 8.91537 38.4339L9.12995 38.3752C9.18922 38.3774 9.24684 38.3889 9.30612 38.3889V38.328L16.5882 36.3418C17.3439 37.5673 19.1199 39.5129 22.7936 39.5129C26.4679 39.5129 28.2438 37.5673 28.9989 36.3418L33.6825 37.6189C32.5645 38.1683 31.7852 39.3081 31.7852 40.6368V48.5045H34.0332V50.7524H2.87739ZM38.529 50.7524H36.2811V48.5045H38.529V50.7524ZM40.7769 41.7608V46.2566H34.0332V40.6368C34.0332 40.0172 34.537 39.5129 35.1571 39.5129H62.1321C62.7528 39.5129 63.256 40.0172 63.256 40.6368V54.1243H56.5123V41.7608H40.7769ZM34.0332 67.6118V65.3639H36.2811V63.1159H34.0332V61.992C34.0332 61.3724 34.537 60.868 35.1571 60.868H56.5123V56.3722H63.256V63.1159H38.529V65.3639H63.256V67.6118H34.0332ZM65.5039 46.2566V44.0087H67.7518V46.2566H65.5039Z" fill="#337E70"/>
</svg>
