<svg width="70" height="70" viewBox="0 0 70 70" fill="none" xmlns="http://www.w3.org/2000/svg">
<g clip-path="url(#clip0)">
<path d="M62.1037 31.8314H65.4202C67.9455 31.8314 70 29.7769 70 27.2516C70 24.7263 67.9455 22.6718 65.4202 22.6718H64.3043C64.1473 19.5453 63.2674 17.773 62.526 16.3345H65.4202C67.9455 16.3345 70 14.28 70 11.7547C70 9.22934 67.9455 7.17486 65.4202 7.17486H63.1194C63.9599 5.336 64.1546 3.6452 62.968 1.95658C62.1072 0.731445 60.6994 0 59.2005 0C57.2325 0 55.4783 1.26328 54.8354 3.1433C54.3966 4.42695 53.5981 5.44865 52.9726 7.17486H47.6224C47.7656 6.8615 47.9057 6.52709 48.0356 6.16643C48.5436 4.75645 48.3327 3.18268 47.4712 1.95658C46.6104 0.731445 45.2026 0 43.7037 0C41.7357 0 39.9815 1.26314 39.3386 3.1433C39.1308 3.75088 38.8351 4.31307 38.5219 4.9082C38.1783 5.56104 37.7984 6.28291 37.4738 7.175H32.1256C32.2689 6.86164 32.4089 6.52723 32.5389 6.16656C33.047 4.75658 32.8359 3.18268 31.9744 1.95658C31.1135 0.731445 29.7057 0 28.2067 0C26.2388 0 24.4846 1.26314 23.8417 3.1433C23.6339 3.75088 23.338 4.31307 23.0248 4.9082C22.6816 5.56021 22.3037 6.27826 21.9789 7.17486H16.6288C17.4694 5.33613 17.6642 3.64547 16.4775 1.95658C15.6167 0.731445 14.2089 0 12.7098 0C10.7419 0 8.98775 1.26328 8.3449 3.1433C7.90576 4.42764 7.10582 5.45508 6.47992 7.17486H4.5798C2.05447 7.17486 0 9.22947 0 11.7548C0 14.2801 2.05447 16.3346 4.5798 16.3346H13.7379C13.8754 16.6204 14.0189 16.8983 14.1594 17.1709C14.9598 18.7223 15.7875 20.3265 15.7875 23.6748V23.689C15.7875 23.6919 15.7873 23.6946 15.7873 23.6975C15.7873 23.6995 15.7873 23.7017 15.7875 23.7038C15.7791 29.785 12.7799 30.4579 12.7799 34.9993C12.7799 36.2791 13.0144 37.2541 13.3783 38.1689H8.03824C7.82578 37.2203 7.72201 36.1759 7.72201 34.9993C7.72201 28.6495 10.7296 28.3914 10.7296 23.6748C10.7296 21.7422 10.168 20.4673 9.59301 19.3272C9.33789 18.8215 8.72129 18.6185 8.2157 18.8736C7.71012 19.1287 7.50695 19.7453 7.76207 20.2509C8.14078 21.0018 8.47027 21.7239 8.60891 22.6721H4.5798C2.05447 22.6718 0 24.7263 0 27.2516C0 29.7769 2.05447 31.8314 4.5798 31.8314H5.93975C5.58701 33.7299 5.57197 36.194 5.94453 38.1687H4.5798C2.05447 38.1686 0 40.2232 0 42.7484C0 45.2736 2.05447 47.3282 4.5798 47.3282H8.61164C8.29951 49.5394 6.87217 50.6688 6.11748 53.6655H4.5798C2.05447 53.6655 0 55.72 0 58.2452C0 60.7704 2.05447 62.825 4.5798 62.825H6.49373C7.10404 64.5094 7.90248 65.6048 8.3352 66.8575C8.98475 68.7371 10.739 70 12.7004 70C14.1974 70 15.6056 69.2686 16.4672 68.0434C17.3275 66.8201 17.5395 65.2503 17.0342 63.8441C16.9038 63.481 16.7632 63.1427 16.6195 62.825H21.9885C22.5932 64.487 23.4041 65.6187 23.832 66.8575C24.4815 68.7371 26.2358 70 28.1971 70C29.6944 70 31.1026 69.2686 31.9642 68.0434C32.8244 66.8202 33.0363 65.2503 32.531 63.8442C32.4006 63.4811 32.26 63.1429 32.1163 62.8251H37.4873C38.0982 64.5109 38.8957 65.6038 39.3288 66.8575C39.9782 68.7371 41.7324 70 43.6938 70C45.191 70 46.5992 69.2686 47.4608 68.0434C48.3211 66.8202 48.5331 65.2504 48.0278 63.8442C47.8974 63.4811 47.7568 63.1429 47.6131 62.8251H52.9819C53.5959 64.5127 54.3919 65.6026 54.8255 66.8575C55.4749 68.7371 57.2291 70 59.1906 70C60.6878 70 62.0959 69.2686 62.9575 68.0434C64.1855 66.2975 63.9103 64.5958 63.1099 62.825H65.4199C67.9453 62.825 69.9997 60.7705 69.9997 58.2452C69.9997 55.7199 67.9453 53.6654 65.4199 53.6654H62.5249C63.2677 52.252 64.1497 50.508 64.3047 47.3281H65.4199C67.9453 47.3281 69.9997 45.2736 69.9997 42.7483C69.9997 40.2229 67.9453 38.1685 65.4199 38.1685H62.1117C61.0202 35.9317 61.072 33.9212 62.1037 31.8314ZM4.5798 29.7806C3.18527 29.7806 2.05078 28.6461 2.05078 27.2516C2.05078 25.8571 3.18527 24.7226 4.5798 24.7226H8.60535C8.32822 26.5897 7.28355 27.6377 6.49797 29.7806H4.5798ZM67.9492 27.2516C67.9492 28.6461 66.8147 29.7806 65.4202 29.7806C61.2678 29.7806 51.0907 29.7806 47.6417 29.7806C48.1899 28.5671 48.6887 27.0223 48.806 24.7226H65.4202C66.8147 24.7226 67.9492 25.8571 67.9492 27.2516ZM33.3082 45.2774C33.1889 43.0049 32.6864 41.4511 32.136 40.2194C32.5963 40.2194 52.5256 40.2196 53.0005 40.2194C53.7738 42.3289 54.8134 43.4648 55.0927 45.2774H33.3082ZM37.1113 53.6655H31.5314C32.2742 52.2521 33.1562 50.5081 33.3112 47.3282H39.6055C39.2934 49.5394 37.8659 50.6687 37.1113 53.6655ZM23.7401 53.6655C24.5711 50.959 26.2262 49.7637 26.2262 46.3239C26.2262 42.962 24.564 41.6572 23.7364 38.9371C23.7299 38.9115 23.7222 38.8862 23.7137 38.8615C23.081 36.724 23.0903 33.814 23.526 31.8313H28.866C27.6881 34.8142 28.397 37.3795 29.6562 39.8202C30.4544 41.3673 31.2797 42.967 31.2843 46.2964C31.2843 46.2986 31.2841 46.3006 31.2841 46.3028C31.2841 46.3057 31.2843 46.3086 31.2843 46.3116V46.324C31.2843 49.7309 30.4603 51.2971 29.6633 52.8119C29.5173 53.0895 29.3683 53.3728 29.2257 53.6657H23.7401V53.6655ZM16.0345 53.6655C16.7773 52.2521 17.6593 50.5081 17.8143 47.3282H24.1084C23.7959 49.543 22.362 50.6825 21.6111 53.6655H16.0345ZM23.0243 19.7937C23.5259 20.7658 23.9452 21.5787 24.1056 22.6718H17.8136C17.6568 19.5453 16.7769 17.773 16.0355 16.3345H21.6238C21.9994 17.8073 22.5457 18.8662 23.0243 19.7937ZM17.8123 24.7226H39.5991C39.1612 27.6732 36.665 28.8267 36.665 34.999C36.665 36.149 36.7549 37.1967 36.9384 38.1686H31.1183C30.0258 35.9304 30.0791 33.9198 31.1099 31.8313H33.4052C33.9715 31.8313 34.4306 31.3722 34.4306 30.8059C34.4306 30.2396 33.9715 29.7805 33.4052 29.7805C31.7577 29.7805 18.5024 29.7805 16.648 29.7805C17.1962 28.5671 17.6948 27.0223 17.8123 24.7226ZM55.0983 22.6718H48.8074C48.6505 19.5453 47.7706 17.773 47.0292 16.3345H52.6176C53.3827 19.3354 54.7758 20.4766 55.0983 22.6718ZM44.7318 16.3345C44.8693 16.6202 45.0126 16.8982 45.1533 17.1708C46.4028 19.5926 46.7493 20.9378 46.7812 23.7081C46.7759 27.0919 45.9546 28.6521 45.1604 30.1613C43.7641 32.8147 43.2548 35.3608 44.3719 38.1687H39.032C38.8195 37.2202 38.7157 36.1758 38.7157 34.9992C38.7157 31.5924 39.5397 30.0267 40.3365 28.5126C43.581 22.3478 40.3186 19.7932 39.2488 16.3346H44.7318V16.3345ZM37.1183 16.3345C37.8723 19.2929 39.2833 20.4955 39.6025 22.6718H33.3104C33.1535 19.5453 32.2736 17.773 31.5321 16.3345H37.1183ZM52.4372 38.1686H46.6159C45.5316 35.939 45.5685 33.9274 46.6062 31.8313H52.4278C52.0863 33.6777 52.0544 36.1469 52.4372 38.1686ZM67.9492 11.7548C67.9492 13.1493 66.8147 14.2838 65.4202 14.2838H61.6042C61.4276 13.7192 61.3214 13.1041 61.3214 12.3501C61.3214 11.0167 61.6351 10.1352 62.0817 9.22578H65.4203C66.8147 9.22565 67.9492 10.3603 67.9492 11.7548ZM56.7759 3.80693C57.135 2.75652 58.1094 2.05078 59.2024 2.05078C60.0447 2.05078 60.8057 2.44617 61.2901 3.13564C63.0619 5.65729 59.2706 7.71859 59.2706 12.3499C59.2706 16.6679 61.9648 17.4613 62.2515 22.6718H57.1659C56.7395 18.8331 54.2125 18.1556 54.2125 12.3499C54.2125 7.47469 55.9046 6.35496 56.7759 3.80693ZM52.2576 14.2837H45.4143C45.3994 14.2834 45.3843 14.2834 45.3694 14.2837H37.9631C37.9508 14.2834 37.9385 14.2836 37.9262 14.2837H30.6104C30.4337 13.719 30.3275 13.1039 30.3275 12.3499C30.3275 11.0165 30.6413 10.1351 31.0878 9.22564H38.1944C38.2018 9.22578 38.2091 9.22592 38.2164 9.22592C38.224 9.22592 38.2316 9.22578 38.2391 9.22564H45.9413C45.952 9.22578 45.9627 9.22578 45.9732 9.22564H52.4223C52.1243 10.8579 52.0991 12.7639 52.2576 14.2837ZM40.3365 5.86332C40.6725 5.22512 41.0197 4.56504 41.2791 3.80693C41.6382 2.75652 42.6126 2.05078 43.7056 2.05078C44.5479 2.05078 45.3089 2.44617 45.7933 3.13564C46.2783 3.82607 46.3925 4.67729 46.1063 5.47135C45.878 6.10531 45.6081 6.65355 45.3372 7.17486H39.6848C39.8926 6.70674 40.1166 6.28113 40.3365 5.86332ZM25.7821 3.80693C26.1413 2.75652 27.1157 2.05078 28.2086 2.05078C29.051 2.05078 29.8119 2.44617 30.2962 3.13551C32.0722 5.66303 28.2767 7.70123 28.2767 12.3499C28.2767 16.6608 30.9705 17.453 31.2576 22.6718H26.1721C25.7519 18.8899 23.2187 18.0802 23.2187 12.3499C23.2188 7.47469 24.9108 6.35496 25.7821 3.80693ZM10.2854 3.8068C10.6445 2.75652 11.6188 2.05078 12.7118 2.05078C13.5542 2.05078 14.3151 2.44617 14.7995 3.13564C15.7373 4.47016 15.0979 5.72359 14.3434 7.175H8.69094C9.21949 5.98459 9.85756 5.05777 10.2854 3.8068ZM2.05078 11.7548C2.05078 10.3603 3.18527 9.22578 4.5798 9.22578H21.4285C21.1306 10.8579 21.1054 12.7639 21.2637 14.2838H4.5798C3.18527 14.2837 2.05078 13.1492 2.05078 11.7548ZM15.6123 31.8314H21.4339C21.0924 33.6778 21.0606 36.1471 21.4434 38.1687H15.6222C14.538 35.9388 14.5746 33.9276 15.6123 31.8314ZM2.05078 42.7484C2.05078 41.3539 3.18527 40.2194 4.5798 40.2194H22.0068C22.7801 42.3289 23.8197 43.4648 24.099 45.2774H4.5798C3.18527 45.2774 2.05078 44.1429 2.05078 42.7484ZM4.5798 60.7744C3.18527 60.7744 2.05078 59.6399 2.05078 58.2453C2.05078 56.8508 3.18527 55.7163 4.5798 55.7163H5.76406C5.70445 56.3032 5.67109 56.9446 5.67109 57.6492C5.67109 58.8589 5.77295 59.8854 5.93824 60.7742H4.5798V60.7744ZM14.7898 66.8637C14.3047 67.5536 13.5431 67.9492 12.7004 67.9492C11.6129 67.9492 10.6378 67.2413 10.2736 66.1877C9.39914 63.6568 7.72187 62.4087 7.72187 57.6492C7.72187 51.7747 10.261 51.2047 10.6772 47.3282H15.7616C15.4788 52.6416 12.7798 53.2209 12.7798 57.6492C12.7798 60.7828 14.2611 62.1916 15.1041 64.5377C15.3882 65.3279 15.2737 66.1757 14.7898 66.8637ZM30.6012 64.5377C30.8852 65.3279 30.7706 66.1757 30.2868 66.8637C29.8017 67.5536 29.04 67.9492 28.1973 67.9492C27.1098 67.9492 26.1346 67.2413 25.7705 66.1877C25.3481 64.9652 24.717 64.0067 24.198 62.8251H29.8385C30.1067 63.3519 30.3738 63.9051 30.6012 64.5377ZM15.5996 60.7744C14.7208 58.9597 14.6475 57.2015 15.1046 55.7163H36.7579C36.6983 56.3032 36.665 56.9446 36.665 57.6492C36.665 58.8589 36.7668 59.8854 36.9321 60.7742C33.8424 60.7744 18.5903 60.7744 15.5996 60.7744ZM45.7836 66.8637C45.2985 67.5536 44.5368 67.9492 43.6941 67.9492C42.6066 67.9492 41.6314 67.2413 41.2673 66.1877C40.3936 63.659 38.7156 62.4087 38.7156 57.6492C38.7156 51.7593 41.2542 51.2091 41.6709 47.3282H46.7554C46.6102 50.0556 45.8742 51.4544 45.1601 52.8116C42.0314 58.7582 44.974 61.4104 46.098 64.5377C46.382 65.3279 46.2674 66.1757 45.7836 66.8637ZM61.2803 66.8638C60.7953 67.5536 60.0336 67.9492 59.1909 67.9492C58.1034 67.9492 57.1282 67.2413 56.7641 66.1877C56.3419 64.9657 55.7103 64.006 55.1916 62.8251H60.8321C61.5761 64.285 62.2174 65.5313 61.2803 66.8638ZM67.9492 58.2452C67.9492 59.6397 66.8147 60.7742 65.4202 60.7742H46.5933C46.1423 59.8428 45.8244 58.9539 45.8244 57.6492C45.8244 56.8872 45.927 56.2728 46.0983 55.7163H60.8565C60.8639 55.7164 60.8712 55.7166 60.8785 55.7166C60.8859 55.7166 60.8933 55.7164 60.9007 55.7163H65.4203C66.8147 55.7163 67.9492 56.8508 67.9492 58.2452ZM47.0282 53.6655C47.771 52.2521 48.653 50.5081 48.808 47.3282H55.1016C54.9667 48.2832 54.6468 48.9841 54.2999 49.6664C54.0431 50.1711 54.2443 50.7884 54.7492 51.045C55.2543 51.3021 55.8716 51.1001 56.1278 50.5958C56.6562 49.5569 57.2198 48.2843 57.2198 46.3239C57.2198 42.962 55.5576 41.6572 54.73 38.9371C54.0572 36.3278 54.0873 33.7988 54.5195 31.8313H59.8594C58.7471 34.6485 59.2767 37.1582 60.6497 39.8202C61.4478 41.3673 62.2732 42.967 62.2777 46.2964C62.2777 46.2986 62.2776 46.3006 62.2776 46.3028C62.2776 46.3057 62.2777 46.3086 62.2777 46.3116V46.324C62.2777 49.7309 61.4537 51.2971 60.6568 52.8119C60.5108 53.0895 60.3617 53.3728 60.2191 53.6657H47.0282V53.6655ZM67.9492 42.7484C67.9492 44.1429 66.8147 45.2774 65.4202 45.2774H64.3021C64.1828 43.0049 63.6803 41.4511 63.1299 40.2194H65.4203C66.8147 40.2194 67.9492 41.354 67.9492 42.7484Z" fill="#347C40"/>
</g>
<defs>
<clipPath id="clip0">
<rect width="70" height="70" fill="white"/>
</clipPath>
</defs>
</svg>
