<svg viewBox="0 0 70 70" fill="none" xmlns="http://www.w3.org/2000/svg">
<path d="M65.0997 31.6317L63.287 24.3808C63.7826 24.2755 64.1544 23.8358 64.1544 23.309V22.14C64.1544 19.6016 62.0893 17.5366 59.5511 17.5366H51.2944V15.1252C51.2944 13.8761 50.2783 12.86 49.0293 12.86H6.94148C5.69242 12.86 4.67633 13.8761 4.67633 15.1252V35C4.67633 35.6053 5.16701 36.0961 5.7724 36.0961C6.37766 36.0961 6.86848 35.6054 6.86848 35V15.1252C6.86848 15.0849 6.90115 15.0522 6.94148 15.0522H49.0291C49.0695 15.0522 49.1021 15.0849 49.1021 15.1252V35.0003C49.1021 35.6055 49.5928 36.0964 50.1982 36.0964C50.8035 36.0964 51.2943 35.6057 51.2943 35.0003V33.7578H64.2236C64.2247 33.7578 64.2255 33.7581 64.2265 33.7581C64.2276 33.7581 64.2285 33.7579 64.2295 33.7579C65.8205 33.759 67.1714 34.8033 67.6354 36.2422H64.2273C63.6221 36.2422 63.1312 36.7329 63.1312 37.3383V39.6765C63.1312 41.5702 64.6718 43.1107 66.5655 43.1107H67.8077V47.9332H64.9418C64.0004 45.2148 61.4162 43.2567 58.3818 43.2567C55.3473 43.2567 52.763 45.2148 51.8217 47.9332H51.294V39.6763C51.294 39.0711 50.8033 38.5803 50.1979 38.5803C49.5927 38.5803 49.1018 39.0709 49.1018 39.6763V47.9329H26.3617C25.4203 45.2145 22.8361 43.2565 19.8017 43.2565C16.7672 43.2565 14.1829 45.2145 13.2416 47.9329H6.94148C6.90115 47.9329 6.86848 47.9002 6.86848 47.8599V45.4486H11.6179C12.2232 45.4486 12.714 44.9579 12.714 44.3525C12.714 43.7471 12.2233 43.2565 11.6179 43.2565H1.09607C0.49082 43.2565 0 43.7471 0 44.3525C0 44.9579 0.490684 45.4486 1.09607 45.4486H4.67646V47.8599C4.67646 49.109 5.69256 50.1251 6.94162 50.1251H12.8621C12.8618 50.1494 12.8602 50.1736 12.8602 50.1981C12.8602 54.0257 15.9742 57.1396 19.8017 57.1396C23.6291 57.1396 26.7431 54.0257 26.7431 50.1981C26.7431 50.1735 26.7415 50.1494 26.7412 50.1251H51.4422C51.4419 50.1494 51.4403 50.1736 51.4403 50.1981C51.4403 54.0257 54.5543 57.1396 58.3818 57.1396C62.2092 57.1396 65.3233 54.0257 65.3233 50.1981C65.3233 50.1735 65.3216 50.1494 65.3213 50.1251H68.9038C69.509 50.1251 69.9999 49.6344 69.9999 49.029V37.338C70 34.4516 67.8703 32.0534 65.0997 31.6317ZM51.2944 19.7287H59.5511C60.8807 19.7287 61.9624 20.8104 61.9624 22.14V22.213H51.2944V19.7287ZM51.2944 31.5658V24.405H61.0336L62.8238 31.5658H51.2944ZM19.8017 54.9478C17.1828 54.9478 15.0522 52.8173 15.0522 50.1983C15.0522 47.5794 17.1828 45.4489 19.8017 45.4489C22.4205 45.4489 24.5511 47.5794 24.5511 50.1983C24.5511 52.8173 22.4205 54.9478 19.8017 54.9478ZM58.382 54.9478C55.7632 54.9478 53.6326 52.8173 53.6326 50.1983C53.6326 47.5794 55.7632 45.4489 58.382 45.4489C61.0009 45.4489 63.1315 47.5794 63.1315 50.1983C63.1315 52.8173 61.0009 54.9478 58.382 54.9478ZM67.808 40.9186H66.5658C65.8808 40.9186 65.3235 40.3613 65.3235 39.6763V38.4341H67.8078V40.9186H67.808Z" fill="#B93737"/>
<path d="M19.8017 47.9332C18.5526 47.9332 17.5365 48.9493 17.5365 50.1984C17.5365 51.4474 18.5526 52.4635 19.8017 52.4635C21.0507 52.4635 22.0668 51.4474 22.0668 50.1984C22.0668 48.9493 21.0507 47.9332 19.8017 47.9332Z" fill="#B93737"/>
<path d="M58.382 47.9332C57.133 47.9332 56.1169 48.9493 56.1169 50.1984C56.1169 51.4474 57.133 52.4635 58.382 52.4635C59.6311 52.4635 60.6472 51.4474 60.6472 50.1984C60.6472 48.9493 59.6311 47.9332 58.382 47.9332Z" fill="#B93737"/>
<path d="M45.5219 43.2568H29.1545C28.5492 43.2568 28.0584 43.7475 28.0584 44.3529C28.0584 44.9583 28.5491 45.449 29.1545 45.449H45.5219C46.1271 45.449 46.618 44.9583 46.618 44.3529C46.618 43.7475 46.1273 43.2568 45.5219 43.2568Z" fill="#B93737"/>
<path d="M17.4635 38.5804H3.43424C2.82899 38.5804 2.33817 39.0711 2.33817 39.6765C2.33817 40.2818 2.82885 40.7725 3.43424 40.7725H17.4635C18.0688 40.7725 18.5596 40.2818 18.5596 39.6765C18.5596 39.0711 18.0688 38.5804 17.4635 38.5804Z" fill="#B93737"/>
<path d="M38.1132 23.7029C37.6853 23.275 36.9912 23.275 36.5632 23.703L26.8163 33.4498L21.7458 28.3793C21.3177 27.9513 20.6237 27.9513 20.1958 28.3793C19.7677 28.8074 19.7677 29.5013 20.1958 29.9293L26.0414 35.7749C26.2553 35.989 26.5359 36.0959 26.8163 36.0959C27.0967 36.0959 27.3774 35.989 27.5912 35.7749L38.1131 25.253C38.5411 24.8248 38.5411 24.131 38.1132 23.7029Z" fill="#B93737"/>
</svg>
